<svg version="1.1" xmlns="http://www.w3.org/2000/svg" xmlns:xlink="http://www.w3.org/1999/xlink" width="86.04199" height="70.75505" viewBox="0,0,86.04199,70.75505"><g transform="translate(-192.66667,-152.81162)"><g data-paper-data="{&quot;isPaintingLayer&quot;:true}" fill="#5a21ff" fill-rule="nonzero" stroke="none" stroke-linecap="butt" stroke-linejoin="miter" stroke-miterlimit="10" stroke-dasharray="" stroke-dashoffset="0" style="mix-blend-mode: normal"><path d="M237.83333,164.9c-0.66325,0 -1.26618,-0.25828 -1.71369,-0.67975c-0.27313,-0.00424 -0.54632,-0.00177 -0.81962,0.00953c-0.31292,0.01294 -0.62316,0.03596 -0.93083,0.06842c0.64927,1.13426 1.32572,2.33985 1.50768,2.66168l1.8546,2.14648c0,0 1.62698,1.89814 -0.27116,3.52512c-1.89814,1.62698 -3.52512,-0.27116 -3.52512,-0.27116l-2.1454,-2.52019c-0.80292,-1.39269 -1.27933,-3.01934 -2.31047,-4.24197c-4.05626,1.68996 -7.71095,4.60977 -11.29354,6.90444c-2.31999,1.48596 -5.88573,3.54649 -7.62727,5.64937c-0.60968,0.73618 -0.85166,4.11089 -0.90017,4.78519c-0.19036,2.64605 -1.01737,5.24241 -1.00268,7.89527c0.01981,3.57564 5.26071,6.36882 7.83369,7.60501c6.30383,2.35648 13.05682,5.1649 19.74745,6.16201c2.83684,0.42278 7.42517,0.45635 10.17104,1.19503c1.36112,0.36616 4.12783,2.96078 5.97299,1.23744c1.91915,-1.79244 4.13372,-6.56891 4.29583,-9.18859c0.13831,-2.23507 -2.20596,-5.96638 -2.59294,-7.52545c-0.28923,-1.16527 0.07378,-2.40859 -0.06361,-3.60134c-0.11373,-0.98736 -0.68401,-1.90792 -0.68546,-2.90181c-0.00338,-2.31636 1.08342,-4.62496 0.7164,-6.91206c-0.32131,-2.00223 -2.31567,-4.36987 -3.31882,-6.06823c-0.95438,-0.6293 -2.19996,-0.95675 -2.86314,-1.88791c-0.76039,-1.06764 -0.77931,-2.50853 -1.26032,-3.72897c-0.61404,-0.0696 -2.27543,-0.44621 -2.27543,-2.48422c0,-0.06934 0.00192,-0.13676 0.00566,-0.20231c-0.11324,-0.08132 -0.22871,-0.16058 -0.34613,-0.23789c-0.14622,2.27353 -2.49287,2.27353 -2.49287,2.27353c-0.74368,-0.00069 -1.4864,-0.05542 -2.22878,-0.1213c-0.40669,0.28643 -0.90265,0.45463 -1.43789,0.45463zM250.83333,160.23333c0,0 2.5,0 2.5,2.5c0,1.69111 -1.14394,2.23828 -1.88419,2.41532c0.08557,0.24963 0.19636,0.48709 0.34844,0.70482c0.54627,0.78212 1.64679,0.96362 2.47019,1.44543c1.56758,2.41621 4.17639,5.63954 4.68118,8.59844c0.772,4.52523 -1.10828,8.8834 0.02813,13.39334c0.76477,3.03506 2.82663,5.87286 2.67959,8.99934c-0.05433,1.15523 -0.75865,2.18507 -1.13383,3.27904c-1.22875,3.58287 -1.87152,7.03256 -5.23701,9.53237c-4.51455,3.35331 -5.76033,0.68131 -10.16221,-0.4747c-1.85295,-0.48662 -7.95707,-0.82668 -9.69376,-1.09284c-7.10245,-1.08848 -14.22967,-3.98872 -20.91922,-6.50466c-0.07416,-0.03678 -0.14879,-0.07405 -0.22384,-0.11181c0.03054,0.15614 0.04654,0.31749 0.04654,0.48257c0,1.38071 -1.11929,2.5 -2.5,2.5c-1.38071,0 -2.5,-1.11929 -2.5,-2.5c0,-1.08155 0.6868,-2.00269 1.64806,-2.35108c-3.55799,-2.27652 -7.00534,-5.51512 -7.30372,-9.74801c-0.20692,-2.93536 0.77115,-5.83747 0.99732,-8.7714c0.16112,-2.09003 0.47362,-5.48257 1.7665,-7.21481c1.96577,-2.63382 6.22052,-5.20663 9.0394,-7.01729c1.04601,-0.67189 2.08914,-1.37018 3.13804,-2.06774c-1.04942,-0.25245 -1.62287,-1.25599 -1.62287,-1.25599c-0.66923,-1.2768 -0.89786,-2.45188 -2.5186,-2.83723c-0.89771,-0.21344 -1.90869,0.3047 -2.76803,-0.03141c-1.03165,-0.40351 -1.8616,-1.1828 -2.73355,-1.88385c-0.58421,-0.05955 -2.30922,-0.4112 -2.30922,-2.48786c0,-2.5 2.5,-2.5 2.5,-2.5l2.16667,0.5c0.65241,0.54276 1.15699,1.34573 1.95724,1.62829c0.80637,0.28473 1.76156,-0.3235 2.5653,-0.03141c3.78812,1.37662 3.70337,2.2104 5.4814,5.16277c0,0 0.47383,0.82921 0.32326,1.75546c1.35497,-0.85165 2.73258,-1.66025 4.15049,-2.3704c-0.83637,-1.73776 -1.55831,-3.64594 -0.97883,-5.37261c1.34106,-3.99598 7.28573,-4.00698 10.20839,-3.40849c4.31228,0.88304 10.69345,3.48059 14.15675,7.13639c0.62279,0 1.21712,0 1.63599,0zM230.29789,160.07002c1.51461,-0.45024 3.08724,-0.74627 4.73542,-0.83313c0.71688,-0.03778 1.43349,-0.01371 2.15012,0.03517c-1.04389,-0.47233 -2.07217,-0.98747 -3.17545,-1.28291c-0.93005,-0.24906 -1.92293,-0.23349 -2.88355,-0.16839c-0.56239,0.03811 -1.49477,-0.07502 -1.62329,0.4738c-0.14664,0.62618 0.23414,1.23228 0.79676,1.77546z" stroke-width="0.5"/><path d="M231.99819,181.87749c-0.34951,-0.14787 -0.70775,-0.26911 -1.0802,-0.34601c-0.42506,-0.08776 -0.54704,0.68966 -0.70808,1.0927c-0.22321,0.55862 1.13229,-0.40919 1.68376,-0.64953zM232.67392,186.92352c-1.14182,0.30863 -2.31055,0.95687 -3.39806,0.58019c-5.738,-1.98743 -4.74278,-9.68631 0.80615,-10.90186c2.43253,-0.53287 9.37884,3.01693 10.29469,5.29616c1.78534,4.44311 0.38394,8.18522 -5.30267,7.21722c-1.0798,-0.18381 -1.71332,-1.23982 -2.40011,-2.19171z" stroke-width="0.5"/><path d="M231.94238,181.96339c-0.55147,0.24034 -1.99993,1.2427 -1.77672,0.68408c0.16104,-0.40304 0.31394,-1.25194 0.739,-1.16418c0.37245,0.0769 0.79175,0.23146 1.14126,0.37933z" data-paper-data="{&quot;noHover&quot;:false,&quot;origItem&quot;:[&quot;Path&quot;,{&quot;applyMatrix&quot;:true,&quot;segments&quot;:[[[231.99819,181.87749],[0,0],[-0.34951,-0.14787]],[[230.91799,181.53148],[0.37245,0.0769],[-0.42506,-0.08776]],[[230.20991,182.62418],[0.16104,-0.40304],[-0.22321,0.55862]],[[231.89367,181.97465],[-0.55147,0.24034],[0,0]]],&quot;closed&quot;:true,&quot;fillColor&quot;:[0.93725,1,0],&quot;strokeWidth&quot;:0.5}]}" stroke-width="0.25"/><path d="M194.5,177.56667c-1.5,-2 0.5,-3.5 0.5,-3.5l2.77169,-2.07462c2.92934,-1.75105 5.64229,-2.89317 8.74351,-4.22324c0,0 2.29786,-0.9848 3.28266,1.31306c0.9848,2.29786 -1.31306,3.28266 -1.31306,3.28266c-2.80254,1.20024 -5.2922,2.1911 -7.92316,3.77676l-2.56164,1.92538c0,0 -2,1.5 -3.5,-0.5z" stroke-width="0.5"/><path d="M192.66667,186.73333c0,-1.38071 1.11929,-2.5 2.5,-2.5c1.38071,0 2.5,1.11929 2.5,2.5c0,1.38071 -1.11929,2.5 -2.5,2.5c-1.38071,0 -2.5,-1.11929 -2.5,-2.5z" stroke-width="0.5"/><path d="M223.61812,215.55696c-0.49029,2.45145 -2.94174,1.96116 -2.94174,1.96116l-3.33333,-0.66667c0,0 -2.45145,-0.49029 -1.96116,-2.94174c0.0083,-0.04148 0.01715,-0.08211 0.02655,-0.12192c-0.64974,-0.45149 -1.0751,-1.2033 -1.0751,-2.05445c0,-1.38071 1.11929,-2.5 2.5,-2.5c1.38071,0 2.5,1.11929 2.5,2.5c0,0.13979 -0.01147,0.27691 -0.03353,0.41045l2.35715,0.47143c0,0 2.45145,0.49029 1.96116,2.94174z" stroke-width="0.5"/><path d="M248.31403,218.04342c-0.31009,2.48069 -2.79078,2.17061 -2.79078,2.17061c-0.88889,-0.11111 -4.44444,-0.55556 -5.33333,-0.66667c0,0 -2.48069,-0.31009 -2.17061,-2.79078c0.31009,-2.48069 2.79078,-2.17061 2.79078,-2.17061c0.88889,0.11111 1.77778,0.22222 2.66667,0.33333l2.66667,0.33333c0,0 2.48069,0.31009 2.17061,2.79078z" stroke-width="0.5"/><path d="M264,221.06667c0,2.5 -2.5,2.5 -2.5,2.5h-0.33333c-2.0861,-0.00232 -4.17282,-0.14002 -6.24876,-0.34574c0,0 -2.48759,-0.24876 -2.23883,-2.73635c0.24876,-2.48759 2.73635,-2.23883 2.73635,-2.23883c1.91035,0.19289 3.83118,0.32327 5.75124,0.32093h0.33333c0,0 2.5,0 2.5,2.5z" stroke-width="0.5"/><path d="M277.70037,207.42573c1.97427,1.5337 0.44057,3.50798 0.44057,3.50798l-1.50276,1.93089c-1.4971,1.74072 -3.02394,3.58478 -3.79735,5.74655c0,0 -0.87781,2.34082 -3.21863,1.46301c-2.34082,-0.87781 -1.46301,-3.21863 -1.46301,-3.21863c1.03602,-2.67109 2.82633,-5.02107 4.66207,-7.22065l1.37115,-1.76858c0,0 1.5337,-1.97427 3.50798,-0.44057z" stroke-width="0.5"/><path d="M259.60186,183.77302c1.62698,-1.89814 3.52512,-0.27116 3.52512,-0.27116l2.27067,1.94804c2.94538,2.22685 4.95649,4.53027 8.1112,6.50762c0,0 2.10915,1.34219 0.76696,3.45134c-1.34219,2.10915 -3.45134,0.76696 -3.45134,0.76696c-3.32098,-2.1404 -5.45158,-4.51873 -8.55546,-6.82572l-2.39599,-2.05196c0,0 -1.89814,-1.62698 -0.27116,-3.52512z" stroke-width="0.5"/><path d="M262.06557,172.96557c1.76777,-1.76777 3.53553,0 3.53553,0c0.66667,0.66667 2,2 2.66667,2.66667c0,0 1.76777,1.76777 0,3.53553c-1.76777,1.76777 -3.53553,0 -3.53553,0c-0.66667,-0.66667 -1.33333,-1.33333 -2,-2l-0.66667,-0.66667c0,0 -1.76777,-1.76777 0,-3.53553z" stroke-width="0.5"/><path d="M259.33333,170.06667c0,-1.38071 1.11929,-2.5 2.5,-2.5c1.38071,0 2.5,1.11929 2.5,2.5c0,1.38071 -1.11929,2.5 -2.5,2.5c-1.38071,0 -2.5,-1.11929 -2.5,-2.5z" stroke-width="0.5"/><path d="M258,163.73333c0,-1.38071 1.11929,-2.5 2.5,-2.5c1.38071,0 2.5,1.11929 2.5,2.5c0,1.38071 -1.11929,2.5 -2.5,2.5c-1.38071,0 -2.5,-1.11929 -2.5,-2.5z" stroke-width="0.5"/></g></g></svg>