<svg version="1.1" xmlns="http://www.w3.org/2000/svg" xmlns:xlink="http://www.w3.org/1999/xlink" width="38" height="25.66667" viewBox="0,0,38,25.66667"><g transform="translate(-222.5,-166.06667)"><g data-paper-data="{&quot;isPaintingLayer&quot;:true}" fill-rule="nonzero" stroke="none" stroke-linecap="butt" stroke-linejoin="miter" stroke-miterlimit="10" stroke-dasharray="" stroke-dashoffset="0" style="mix-blend-mode: normal"><path d="M222.5,191.73333v-25.66667h38v25.66667z" fill="#ffffff" stroke-width="0"/><path d="M235.25,178.73333c0,-1.25 1.25,-1.25 1.25,-1.25h0.33333c2.00102,0 4.05204,0.32563 6,0.33333c4.40288,0.01741 8.76734,-1.35465 13.2055,-0.64966c0,0 1.23299,0.2055 1.02749,1.43849c-0.2055,1.23299 -1.43849,1.02749 -1.43849,1.02749c-4.24464,-0.74822 -8.55957,0.66998 -12.7945,0.68367c-1.94756,0.0063 -4.00271,-0.33333 -6,-0.33333h-0.33333c0,0 -1.25,0 -1.25,-1.25z" fill="#000000" stroke-width="0.5"/><path d="M242.71722,185.95055c-0.88388,0.88388 -1.76777,0 -1.76777,0l-0.08595,-0.33787c-1.97639,-0.49472 -3.30407,-1.2789 -5.17518,-2.05783c-0.89478,-0.37249 -3.32416,-0.66818 -4.07559,-1.60771c-0.59866,-0.74851 -1.28025,-1.70716 -1.11356,-2.65102c0.17591,-0.99609 1.38911,-1.47764 1.98679,-2.29368c1.17024,-1.59776 3.26778,-4.3158 5.43329,-4.82771c0.62135,-0.14688 1.25596,0.23061 1.88393,0.34592c0,0 1.21268,0.30317 0.90951,1.51585c-0.30317,1.21268 -1.51585,0.90951 -1.51585,0.90951c-1.81771,-0.74485 -3.66069,2.33338 -4.68278,3.51821c-0.43223,0.50105 -1.18642,0.68815 -1.54874,1.24186c-0.28795,0.44005 0.82104,0.69971 1.32118,0.86229c2.48019,0.80621 4.64909,1.98622 7.18335,2.61896l1.24738,0.99546c0,0 0.88388,0.88388 0,1.76777z" fill="#000000" stroke-width="0.5"/></g></g></svg>