<svg version="1.1" xmlns="http://www.w3.org/2000/svg" xmlns:xlink="http://www.w3.org/1999/xlink" width="538.5562" height="413.69382" viewBox="0,0,538.5562,413.69382"><g transform="translate(28.99399,27.13214)"><g data-paper-data="{&quot;isPaintingLayer&quot;:true}" fill="#000000" fill-rule="nonzero" stroke="none" stroke-width="0.5" stroke-linecap="butt" stroke-linejoin="miter" stroke-miterlimit="10" stroke-dasharray="" stroke-dashoffset="0" style="mix-blend-mode: normal"><path d="M-15.07576,-1.22719l0.49853,-1.84456l2.13544,-1.84425c1.6159,-1.87802 3.50609,-3.51328 5.60838,-4.8436l0.84993,-0.73403l0.94747,-0.30147c3.45536,-1.80371 7.38485,-2.82353 11.55253,-2.82353h15.01502l2.72649,0.27265l0.27827,-0.00828l0.44825,0.08093l0.45324,0.04532l0.26529,0.08441l2.69649,0.48687l8.86853,2.53387l8.43339,1.20477l13.12537,1.45837l1.06169,0.22665l1.08043,0.10592l5.08009,1.01602l3.10363,0l0.23576,-0.13544l1.85096,0.13544h2.84467l2.58942,0.25894l1.24525,-0.62263l3.11676,-1.18734l0.16472,-0.08434l0.19666,-0.05333l0.19041,-0.07254l0.18282,-0.02868l3.219,-0.87295l6.16275,-1.02712l0.13492,-0.06809l0.44058,-0.02783l2.27076,-0.37846l3.91732,-0.25687l1.18095,0.16992l1.19074,-0.0752l3.88436,0.56844l2.23334,0.55834l0.43696,0.06287l0.12906,0.07863l0.22089,0.05522l28.98141,0l10.82014,-2.16403l0.66084,-0.30633l1.02302,-0.03045l0.0836,-0.01672l3.907,-0.38304l1.99464,0.22163l2.00603,-0.0597l3.86327,0.69753l0.08197,0.02342l1.01722,0.11302l0.63392,0.35873l1.62368,0.46391l1.78291,-0.67921l1.83527,-0.28789l1.77027,-0.56327l3.90625,-0.39062l0.40454,0l0.993,-0.15576l0.61332,0.15576l2.59794,0l0.72737,-0.36368l3.66855,-1.39754l0.43728,-0.06859l2.13345,-0.87848l3.18841,0.04368l3.15019,-0.49415l2.23624,0.56793l0.44259,0.00606l3.82932,0.86469l2.69869,0.89956l1.79881,0.45684l0.21045,0.2363l1.4144,0.63404l1.65681,0.63116l2.64368,1.32184l3.26005,0.54334h36.96998l1.93443,0.19344l0.2446,-0.01545l0.86118,0.12603l0.86604,0.0866l0.23355,0.07431l1.92359,0.2815l3.4902,0.87255l3.47194,-2.99849l1.67136,-0.5318l2.92295,-1.31029l13.51351,-4.5045l3.82932,-0.86469l0.08711,-0.00119l0.08302,-0.02641l3.90625,-0.39062h7.50751l1.76416,0.17642l1.77138,0.07485l5.99976,0.85711l8.33762,-1.8528l9.79359,-2.79817l0.63518,-0.11469l0.61136,-0.207l19.51952,-4.5045l1.55578,-0.19886l0.15945,-0.05074l1.09111,-0.10911l1.0877,-0.13903l0.16678,0.01358l1.56066,-0.15607h31.53153l1.93443,0.19344l0.2446,-0.01545l0.86118,0.12603l0.86604,0.0866l0.23355,0.07431l1.92359,0.2815l3.02026,0.75506h8.93437l1.76416,0.17642l1.77138,0.07485l10.51051,1.5015l2.18005,0.53711l2.19011,0.49454l0.17208,0.05736l0.87341,-0.21835l0.74402,-0.37549l1.33338,-0.08421l3.3089,-0.48423l2.17903,0.13762l2.17903,-0.13762l3.3089,0.48423l1.33338,0.08421l0.74402,0.37549l0.12195,0.03049l3.25136,-0.73418l0.08711,-0.00119l0.08302,-0.02641l3.90625,-0.39063h6.00601l2.45122,0.24512l2.45169,0.24036l5.08009,1.01602h8.03502l3.90625,0.39063l0.08302,0.02641l0.08711,0.00119l3.82932,0.86469l4.5045,1.5015l0.67175,0.30113l0.70732,0.20403l7.50751,3.003l1.06316,0.55373l0.0527,0.01515l1.18042,0.6271l1.1855,0.61745l0.04234,0.03484l1.05861,0.56239l4.5045,3.003l1.23988,1.01847l1.69222,1.00676l2.78318,3.81878l2.95192,3.6899l0.52604,1.89748l0.65635,1.46417l1.5015,4.5045l0.86469,3.82932l0.00119,0.08711l0.02641,0.08302l0.39063,3.90625v3.003l-0.39062,3.90625l-0.02641,0.08302l-0.00119,0.08711l-0.39085,1.7309l1.65597,5.9733l0.26399,0.82969l0.01917,0.19173l0.93966,3.3895l-0.56821,1.69172l0,5.63144l0.15576,0.61332l-0.15576,0.993v0.40454l-0.39062,3.90625l-0.56327,1.77027l-0.28789,1.83527l-1.39754,3.66855l-0.18092,0.36183l-0.18277,0.57441v9.89658l0.15576,0.61332l-0.15576,0.993v0.40454l-0.39062,3.90625l-0.56327,1.77027l-0.28789,1.83527l-0.25972,0.68177v6.82145l-0.03637,0.36368l0.17122,1.36976l-0.47257,1.64371l-0.05291,0.5291l-1.0288,3.23337l-0.93754,3.26101l-0.24947,0.46958l-0.39652,1.24621l1.86513,3.73027l0.3654,0.95916l0.90628,1.48748l0.72956,5.07045l0.79385,5.06079l-0.42876,1.68822l-0.06716,1.02421l-1.5015,9.00901l-0.26157,0.96455l-0.14471,0.98886l-2.26901,9.07602l-0.37819,3.78185l-0.24977,0.78498l-0.05963,0.8216l-1.08806,3.77194l-2.25005,5.62512l-1.96788,8.85544v0.18406l2.25657,9.02626l0.2815,1.92359l0.07431,0.23355l0.0866,0.86604l0.12603,0.86118l-0.01545,0.2446l0.19344,1.93443v9.45657l0.21858,0.65575l0.86469,3.82932l0.00119,0.08711l0.02641,0.08302l0.39063,3.90625v18.01802l-0.39062,3.90625l-0.24977,0.78498l-0.05963,0.8216l-1.08806,3.77194l-3.003,7.50751l-0.55373,1.06316l-0.01515,0.0527l-0.6271,1.18042l-0.15593,0.29939l-0.10813,1.08129l-0.24036,2.45169l-0.76782,3.83908l0.2461,1.08986l1.14264,1.98904l-0.4735,6.47123l0.04336,3.16546l-0.33441,0.81213l-0.06409,0.87594l-1.45442,2.81188l-2.47051,5.9998l-1.54322,1.02372l0.15535,1.55349v0.40454l0.15576,0.993l-0.15576,0.61332v10.00115l-0.20521,2.05208l-0.13494,2.05789l-1.45372,8.72231l-1.20913,8.46393l0,15.35553l0.21858,0.48761l3.003,9.00901l0.86469,3.82932l0.00119,0.08711l0.02641,0.08302l0.37538,3.75375l0.19802,0.62233l0.18092,0.36183l1.39754,3.66855l0.28789,1.83527l0.56327,1.77027l0.39063,3.90625v0.40454l0.15576,0.993l-0.15576,0.61332v3.99514l-0.39062,3.90625l-0.02641,0.08302l-0.00119,0.08711l-0.86469,3.82932l-1.5015,4.5045l-0.72524,1.61784l-0.63116,1.65681l-6.00601,12.01201l-2.09631,3.31916l-2.89558,2.97602l-1.92797,2.90635l-5.97865,2.4618l-5.9683,2.48679l-3.41838,-0.69182l-4.15185,-0.05687l-3.82932,-0.86469l-0.65575,-0.21858h-9.45657l-1.2407,-0.12407h-1.24689l-13.77431,-1.37743h-3.25761l-3.90625,-0.39062l-0.08302,-0.02641l-0.08711,-0.00119l-3.61185,-0.81558l-0.31014,0.06277l-1.71315,-0.71381l-2.69869,-0.89956l-3.58227,-1.60584l-0.35771,-0.2607l-1.73364,-0.72235l-1.83389,-0.4141l-0.65575,-0.21858h-10.44871l-0.61332,0.15576l-0.993,-0.15576h-0.40454l-3.90625,-0.39062l-1.77027,-0.56327l-1.83527,-0.28789l-0.68177,-0.25972l-20.86248,0l-5.08009,1.01602l-2.45169,0.24036l-2.45122,0.24512h-3.45057l-5.16026,1.72009l-3.82932,0.86469l-0.08711,0.00119l-0.08302,0.02641l-3.90625,0.39063h-12.01201l-1.93443,-0.19344l-0.2446,0.01545l-0.86118,-0.12603l-0.86604,-0.0866l-0.23355,-0.07431l-0.49962,-0.07311l-0.46334,0.14743l-3.90625,0.39063l-0.40454,0l-0.993,0.15576l-0.61332,-0.15576h-3.48578l-0.61332,0.15576l-0.993,-0.15576h-0.40454l-3.90625,-0.39062l-1.77027,-0.56327l-1.83527,-0.28789l-0.68177,-0.25972h-3.81845l-2.05208,-0.20521l-2.05789,-0.13494l-27.02703,-4.5045l-0.96455,-0.26157l-0.98886,-0.14471l-2.03903,-0.50976l-0.23675,0.11838l-1.31724,0.50181l-0.10483,0.06471l-1.12726,0.40466l-1.11922,0.42637l-0.12171,0.01909l-1.32669,0.47625l-6.00601,1.5015l-1.92359,0.2815l-0.23355,0.07431l-0.86604,0.0866l-0.86118,0.12603l-0.2446,-0.01545l-1.93443,0.19344h-37.9851l-5.16026,1.72009l-1.25778,0.28401l-1.22466,0.40358l-13.51351,3.003l-1.39962,0.16735l-0.1174,0.03735l-1.19174,0.11917l-1.18922,0.14219l-0.1227,-0.011l-1.40259,0.14026h-8.49964l-0.61332,0.15576l-0.993,-0.15576h-0.40454l-3.90625,-0.39062l-1.77027,-0.56327l-0.99153,-0.15553l-12.27684,1.02307l-1.04058,-0.0172l-1.03556,0.10356l-25.45089,0l-3.02026,0.75506l-1.92359,0.2815l-0.23355,0.07431l-0.86604,0.0866l-0.86118,0.12603l-0.2446,-0.01545l-1.93443,0.19344l-2.92837,0l-3.02026,0.75506l-0.45056,0.06594l-1.34104,0.51027l-1.67852,-0.06838l-0.41424,0.06062l-3.45701,-0.21834l-3.46103,-0.141l-0.40573,-0.10321l-1.67657,-0.10589l-1.28096,-0.64647l-0.4413,-0.11226l-15.29613,-5.56223l-28.77023,-7.19256l-1.9135,-0.6869l-2.02311,-0.44166l-3.63441,-2.59048l-2.49565,-1.54052l-9.39547,0l-1.54681,-0.15468l-1.55405,-0.03837l-10.46759,-1.30845h-2.94806l-0.36368,-0.03637l-1.36976,0.17122l-1.64371,-0.47257l-0.5291,-0.05291l-3.23337,-1.0288l-3.26101,-0.93754l-0.46958,-0.24947l-1.62979,-0.51857l-1.04473,-0.90227l-0.32277,-0.17147l-3.36734,-2.24489l-1.72279,-0.46562l-2.29901,-2.66201l-0.14889,-0.1223l-0.54391,-0.67988l-4.43007,-5.12956l-0.21556,-0.67749l-0.44413,-0.55516l-1.81069,-6.53141l-0.26399,-0.82969l-0.01917,-0.19173l-0.93966,-3.3895l0.56821,-1.69172v-4.6393l0.27265,-2.72649l-0.00828,-0.27827l0.08093,-0.44825l0.04532,-0.45324l0.08441,-0.26529l0.48687,-2.69649l1.20422,-4.21479l-0.92435,-2.42641l-0.28789,-1.83527l-0.56327,-1.77027l-0.39062,-3.90625v-0.40454l-0.15576,-0.993l0.14686,-0.57825l-0.20968,-0.62903l-0.28235,-1.25039l-0.70587,-1.71424l0.06769,-4.94106l-0.06769,-4.94106l0.70587,-1.71424l0.28235,-1.25039l0.21858,-0.65575v-10.95807l0.03637,-0.36368l-0.17122,-1.36976l0.47257,-1.64371l0.05291,-0.5291l1.0288,-3.23337l0.41822,-1.45467l0.00224,-0.16357l-0.49415,-3.15019l0.56793,-2.23624l0.00606,-0.44259l0.86469,-3.82932l0.21858,-0.65575v-4.95207l0.19344,-1.93443l-0.01545,-0.2446l0.12603,-0.86118l0.0866,-0.86604l0.07431,-0.23355l0.2815,-1.92359l0.75506,-3.02026v-8.93437l0.39063,-3.90625l0.02641,-0.08302l0.00119,-0.08711l0.86469,-3.82932l1.00931,-3.02793l0.71077,-3.55387l0,-2.90358l-1.57897,-3.68426l-4.7328,-7.0992l-0.72932,-1.37283l-0.83011,-1.31434l-3.003,-6.00601l-0.50181,-1.31724l-0.06471,-0.10483l-0.40466,-1.12726l-0.42637,-1.11922l-0.01909,-0.12171l-0.47625,-1.32669l-1.5015,-6.00601l-0.2815,-1.92359l-0.07431,-0.23355l-0.0866,-0.86604l-0.12603,-0.86118l0.01545,-0.2446l-0.19344,-1.93443v-6.93995l-1.16135,-6.9681l-0.13494,-2.05789l-0.20521,-2.05208v-22.52252l0.39063,-3.90625l0.16734,-0.52594l0.02798,-0.55121l1.00582,-3.79469l1.74904,-4.66412l-0.59753,-1.56853l-0.28789,-1.83527l-0.56327,-1.77027l-0.39062,-3.90625l0,-0.40454l-0.15576,-0.993l0.15576,-0.61332v-3.99514l0.39063,-3.90625l0.02641,-0.08302l0.00119,-0.08711l0.86469,-3.82932l3.003,-9.00901l0.18991,-0.42364l0.11895,-0.44876l4.00453,-10.67874l0.40971,-1.63883v-25.55519l-0.36368,-0.72737l-0.08055,-0.21145l-4.65852,-4.02327l-0.8928,-3.30335l-1.94828,-4.22128l-0.87212,-3.82763l-1.5015,-12.01201l-0.0969,-3.92454l1.64734,-8.86655l6.29864,-9.44796l2.74708,-1.1238c0.47953,-3.19186 1.56249,-6.18618 3.12903,-8.8631z"/></g></g></svg>